<svg id="Layer_1" data-name="Layer 1" xmlns="http://www.w3.org/2000/svg" xmlns:xlink="http://www.w3.org/1999/xlink" viewBox="0 0 438 438">
    <defs>
        <style>.cls-1{fill:url(#linear-gradient);}.cls-2{fill:#fff;}</style>
        <linearGradient id="linear-gradient" y1="219" x2="438" y2="219" gradientUnits="userSpaceOnUse">
            <stop offset="0" stop-color="#3b82f6" />
            <stop offset="0.17" stop-color="#447cf5" />
            <stop offset="0.45" stop-color="#5d6af2" />
            <stop offset="0.51" stop-color="#6366f1" />
            <stop offset="0.78" stop-color="#6846e5" />
            <stop offset="1" stop-color="#6d28d9" />
        </linearGradient>
    </defs>
    <title>logoGOC</title>
    <circle class="cls-1" cx="219" cy="219" r="219" />
    <path class="cls-2" d="M370.2,494.74c.49,10.08,1.53,40.12-14.93,37.11-9.59-1.76-18.23-12.33-25.5-19.28-9-8.62-18.67-19-31.06-22.21-13.42-3.49-27.85,4.86-28.45,19.66-.14,6.62,3.38,14,11,21.72-1.43-1.43-3.66-3.55-6.17-6.45-7.47-8.6-15.21-18.2-18.16-29.79-2.41-9.46-1.38-18.08,2.48-25.22,4.34-8,12.19-12,22.23-10.53a36.16,36.16,0,0,1,19.4,9.76c6.91,7.1,13.14,14.84,19.31,22.57,8.29,10.39,14.19,15.88,17.78,16.44,11.56,1.79,17.54-11.51,19.65-20.6a57.33,57.33,0,0,0,2.43-20.24c-.81-10.28-2.23-21-6.81-30.67-4-8.36-9.21-13-14.81-12.87-9.22.27-18.84,9.2-25.65,15.28-11.09,9.9-18.68,13.81-23.6,13.23-3.63-.42-8.48-4.59-14.35-12.25-9.15-13-17.94-26.55-18-42.79,0-7,2.42-13.64,6.72-19.78,3.95-5.64,7.92-9.15,11.79-10.15.16-.9.25-1.36.42-2.26-1.43-5.46-2.08-8.12-3.22-13.32a51.45,51.45,0,0,1,.65-23.36c5.78-23.59,26.16-43.43,46.36-52.13.69-.3,1.49-1.69,2.26-3.75,2.19-8.29,3.38-12.33,5.89-20.15a310.14,310.14,0,0,0-41.31,19.39,182.39,182.39,0,0,1,11.36-17.18A207.47,207.47,0,0,1,376.88,219c-1.34,8.62-2,13.09-3.16,22.3-11,1.92-21.49,4.2-32.3,7.06-2.77,10.61-5,21.32-7.14,32.07-1.19,6.21-.95,10,.61,11.18,1.14-.19,2.92-2.56,5.33-7.07,2.13-3.95,3.2-5.91,5.32-9.82a11.09,11.09,0,0,1,6-4.94c3.57-1,7.33,3.42,10.2,13A54.26,54.26,0,0,1,364,296.34q-6.82,13.55-13.59,27.12a100.64,100.64,0,0,0-.41-18.09c-.89-7.11-2.52-10.38-5.08-10q-1.46.2-3.78,3.18a12,12,0,0,0-2.69,5.71,23.65,23.65,0,0,0,.45,7.44c.66,3.41,1,5.61,1.09,6.46a84.16,84.16,0,0,1-.42,12.57c-1.49,14.47-3.67,31.25-14.8,41.71-5.39,5.06-14.36,7.82-25.5,8.12-12.79.35-24.43,7.54-29.12,19.74-2,4.9-2.82,8.8-2.66,11.81A21,21,0,0,0,271,423c2.17,3.19,4.34,4.88,6.46,5,3.91.26,10.92-5,22.31-16,9.35-9,20.91-20.92,34.13-21.68,10.74-.62,17.61,13.67,20.72,22.53a247.05,247.05,0,0,1,11.09,46.17C367.44,470.9,369.63,483.05,370.2,494.74ZM328.3,312.38c1.28-8,1.59-23.73-8.75-22.23-8.7,1.26-16.52,11.46-22.21,18.42a78.6,78.6,0,0,0-16.67,36.91c-1.14,7.3-.46,13.49,1.95,18.63s5.71,7.63,9.52,7.47,8.77-3.31,14.38-9.74a95.82,95.82,0,0,0,13-19.61C324,333.38,326.8,321.77,328.3,312.38Z" transform="translate(-201 -155)" />
    <path class="cls-2" d="M473.51,246a208.09,208.09,0,0,0-20.6-4.23q3.7,28,6.15,56.09c.1,1.3,4.28,8.17,10.27,20.13,7.22,14.41,8.69,31.88,9.62,48.35,1.58,27.94-4.38,58.81-23.75,80.36-5.43,6.71-16,12.68-24.76,12.74-18.48.13-32.21-21.29-40.54-34.41C375.4,402.17,368,373.79,369,346.09a116.14,116.14,0,0,1,8.4-38.78,153.94,153.94,0,0,1,15.33-29.13c4.61-6.67,14.75-13.72,23.38-13.45,4.82.16,12.18,2.79,22.08,8.59.42,0,.6-.52.53-1.64-.7-10.69-1.41-21.38-2.29-32.05a309.77,309.77,0,0,0-66.12,2.19c1.3-9.18,2-13.63,3.45-22.21a205.68,205.68,0,0,1,94.51,4.85C470.51,232.76,471.55,237.08,473.51,246Zm-12.67,89c-.7-15.08-4.11-32.41-16.16-42.8-3.49-2.81-6.47-4.34-8.79-4.38-13.48-.21-22.84,14.3-29.62,24-15.6,22.31-20.17,51.11-20.53,78.06-.18,13.08,3.64,27.64,13.08,37.57,4,4.36,8.12,6.69,12,6.54,15-.58,25.68-17.78,32.93-29.2C456.62,384.53,462,359.31,460.84,335Z" transform="translate(-201 -155)" />
    <path class="cls-2" d="M556.18,284.93a177.17,177.17,0,0,0-14.63-10.12,222.8,222.8,0,0,1,21.65,44.34c6.33,8.18,10.12,13.32,11.59,15.6a120.26,120.26,0,0,1,9.29,18.19c-4.71-.94-7.11-1.39-12-2.27A81.71,81.71,0,0,0,558.28,319c-6-8.18-12.26-13.44-18.85-15.43-6.9-2.08-12.35-.11-17,6.73-6.15,9-8.39,20.46-10.46,30.72a169.41,169.41,0,0,0-3.17,40.88c.61,12.48,1.54,25.84,8.46,36.81,4.57,7.24,10.89,10.45,18.62,10C549,428,559.1,418.51,563.29,406.4c8.52-.14,12.68-.22,20.76-.37-1.79,14.52-11.71,27-22.3,36.39-5.62,4.89-10.75,7.67-15.07,8.31-10.53,1.56-19.09-6.06-25.31-12.55-10-10.42-15.95-25.3-21.34-39.23a169.57,169.57,0,0,1-10.78-49.32c-.85-12.87.92-26,3.85-38.59,3.1-11.55,7.67-39.56,25.87-33.3,8.59,2.95,17.52,10.28,23.11,17.28a231.39,231.39,0,0,0-12.47-27.23,285.6,285.6,0,0,0-59.16-22.56c-1.86-8.95-2.85-13.28-4.93-21.64a207.61,207.61,0,0,1,77.16,46.29A154.21,154.21,0,0,1,556.18,284.93Z" transform="translate(-201 -155)" />
</svg>